Coordinates
version=1
nRows=17
nColumns=24
inDegrees=yes

Units are S.I. units (second, meters, Newtons, ...)
Angles are in degrees.

endheader
time	pelvis_tilt	pelvis_list	pelvis_rotation	pelvis_tx	pelvis_ty	pelvis_tz	hip_flexion_r	hip_adduction_r	hip_rotation_r	knee_angle_r	ankle_angle_r	subtalar_angle_r	mtp_angle_r	hip_flexion_l	hip_adduction_l	hip_rotation_l	knee_angle_l	ankle_angle_l	subtalar_angle_l	mtp_angle_l	lumbar_extension	lumbar_bending	lumbar_rotation
      0.68700000	      7.03472824	     -5.23798375	      3.40375811	     -0.47435334	      1.01047808	      0.30880788	      1.68617274	     10.94013617	     -1.38898724	    -15.29039330	      5.21923196	    -17.79538408	     -7.58288107	     12.90980207	     -5.77731434	      1.45150384	    -70.23058685	     -8.11206254	     -7.32383471	      3.21132352	     -8.99919400	      9.56240044	      3.15368951
      0.69116667	      7.13090431	     -5.06183698	      3.41053307	     -0.46899886	      1.01154383	      0.30893918	      0.94313919	     10.79552512	     -1.26521393	    -14.75103533	      5.24309532	    -17.78934535	     -7.63373794	     13.40475403	     -5.50776429	      1.52264691	    -69.96069947	     -7.57654205	     -7.59553979	      3.06725058	     -9.12102238	      9.36826993	      3.23980598
      0.69533333	      7.18505573	     -4.89082409	      3.39124589	     -0.46365171	      1.01247833	      0.30910437	      0.26881093	     10.65037343	     -1.14583421	    -14.26201430	      5.28875903	    -17.78877204	     -7.69580390	     13.92879402	     -5.25249736	      1.55603391	    -69.64269096	     -6.99806901	     -7.88209342	      2.90230175	     -9.19215501	      9.16852489	      3.33574511
      0.69950000	      7.23915649	     -4.75699556	      3.36140709	     -0.45830948	      1.01335938	      0.30929734	     -0.41228612	     10.55323438	     -0.96415264	    -13.75660434	      5.35618197	    -17.92332469	     -8.04128381	     14.44038505	     -5.05188289	      1.57040584	    -69.27834645	     -6.36391792	     -8.13750133	      2.04410515	     -9.25815997	      9.02227382	      3.54052811
      0.70366667	      7.22389440	     -4.55836836	      3.30125358	     -0.45299015	      1.01413955	      0.30946630	     -0.97729525	     10.36086041	     -0.85156325	    -13.33950156	      5.40382295	    -17.83182607	     -8.06168510	     14.98985174	     -4.76002633	      1.56468786	    -68.82292276	     -5.79138605	     -8.42073941	      2.00480352	     -9.26372745	      8.78518852	      3.54776256
      0.70783333	      7.31683596	     -4.36754861	      3.24933027	     -0.44763152	      1.01502529	      0.30964024	     -1.69123439	     10.18325671	     -0.73575735	    -12.85820738	      5.45946704	    -17.74107575	     -8.10990225	     15.38904903	     -4.50053862	      1.53513703	    -68.28539219	     -5.26516636	     -8.72744477	      1.90706731	     -9.37961670	      8.55818115	      3.65313368
      0.71200000	      7.35641159	     -4.19333076	      3.17843856	     -0.44230971	      1.01576091	      0.30983843	     -2.32724883	     10.02033389	     -0.59083515	    -12.41303290	      5.52617848	    -17.68813866	     -8.17224052	     15.83670520	     -4.26256848	      1.49058439	    -67.71009644	     -4.70308209	     -9.01202635	      1.78311680	     -9.45296830	      8.34270927	      3.79771281
      0.71616667	      7.35329749	     -4.03220959	      3.08140513	     -0.43698742	      1.01637938	      0.31005460	     -2.89307968	      9.86150837	     -0.45873524	    -12.01594487	      5.59493641	    -17.63561307	     -8.20764140	     16.30949050	     -4.04681833	      1.41571892	    -67.08424679	     -4.10225680	     -9.28649402	      1.71503661	     -9.46109610	      8.14700151	      3.89023347
      0.72033333	      7.39368427	     -3.85990349	      2.98275931	     -0.43168167	      1.01700664	      0.31026601	     -3.51558579	      9.69123010	     -0.29917133	    -11.59736621	      5.66123813	    -17.56959409	     -8.24715354	     16.70837823	     -3.82265233	      1.33528497	    -66.38909925	     -3.54207868	     -9.56283873	      1.63538714	     -9.54396715	      7.93958018	      4.02480696
      0.72450000	      7.44797443	     -3.71841689	      2.90034185	     -0.42635778	      1.01759041	      0.31046536	     -4.16547305	      9.55657466	     -0.14828088	    -11.14620393	      5.72746652	    -17.55940563	     -8.44656707	     17.07863819	     -3.63762633	      1.26483527	    -65.64585300	     -2.99457452	     -9.82506207	      1.22094997	     -9.62855720	      7.77454854	      4.34254690
      0.72866667	      7.44952590	     -3.53829701	      2.75735879	     -0.42104739	      1.01808111	      0.31071334	     -4.72123910	      9.36319873	      0.01771267	    -10.77868088	      5.80761571	    -17.46550119	     -8.48379553	     17.46367653	     -3.42298268	      1.12698499	    -64.82031069	     -2.48341154	    -10.06344473	      1.14117620	     -9.64996585	      7.55366273	      4.38124813
      0.73283333	      7.47344159	     -3.39421420	      2.64096942	     -0.41574081	      1.01850051	      0.31093133	     -5.30642223	      9.20934920	      0.15719110	    -10.38858368	      5.88242868	    -17.36702324	     -8.52786206	     17.81951854	     -3.24710838	      1.01616342	    -63.96359127	     -1.97228676	    -10.31677976	      1.04087231	     -9.70388351	      7.37696689	      4.51755068
      0.73700000	      7.52594038	     -3.24970017	      2.53494238	     -0.41042613	      1.01890032	      0.31115119	     -5.93316514	      9.05580081	      0.28742662	     -9.97307888	      5.97383861	    -17.25702703	     -8.59674466	     18.12381002	     -3.07742562	      0.90571282	    -63.04891020	     -1.52230879	    -10.55465864	      0.87240659	     -9.79131306	      7.18268183	      4.73006846
      0.74116667	      7.51157210	     -3.12572977	      2.40315498	     -0.40513197	      1.01913476	      0.31138482	     -6.45725159	      8.91449685	      0.42275228	     -9.61326285	      6.05671749	    -17.15304148	     -8.66879435	     18.48559776	     -2.93368707	      0.77677813	    -62.09861783	     -1.05867592	    -10.78228137	      0.68485602	     -9.80514703	      7.02522668	      4.90674836
      0.74533333	      7.49868777	     -3.00090516	      2.26157825	     -0.39986013	      1.01932510	      0.31160426	     -6.96742211	      8.76584444	      0.56105862	     -9.28149395	      6.13491898	    -17.04528030	     -8.71756554	     18.81889025	     -2.78759326	      0.64641562	    -61.08567258	     -0.60454425	    -10.99054630	      0.54758706	     -9.82249706	      6.88349895	      5.03127741
      0.74950000	      7.50541990	     -2.89027586	      2.13632290	     -0.39457692	      1.01946361	      0.31182116	     -7.50681318	      8.63445700	      0.67847142	     -8.92717604	      6.22051059	    -16.92478793	     -8.76734090	     19.11713480	     -2.66232020	      0.52147985	    -60.03211466	     -0.20385973	    -11.19368938	      0.39448650	     -9.86392560	      6.74329012	      5.18882160
      0.75366667	      7.49473230	     -2.77886441	      2.00948332	     -0.38928919	      1.01953297	      0.31203346	     -8.01929041	      8.49782839	      0.78684933	     -8.58676497	      6.31130408	    -16.80083899	     -8.81381434	     19.41042521	     -2.53576238	      0.39914395	    -58.92191531	      0.15508725	    -11.38756588	      0.23957459	     -9.88339222	      6.60237418	      5.34172843
